<svg width="135" height="41" viewBox="0 0 135 41" fill="none" xmlns="http://www.w3.org/2000/svg">
<g clip-path="url(#clip0_66_221)">
<path d="M130 0.287109H5C2.23858 0.287109 0 2.52569 0 5.28711V35.2871C0 38.0485 2.23858 40.2871 5 40.2871H130C132.761 40.2871 135 38.0485 135 35.2871V5.28711C135 2.52569 132.761 0.287109 130 0.287109Z" fill="black"/>
<path d="M130 1.08711C131.114 1.08711 132.182 1.52961 132.97 2.31726C133.758 3.10491 134.2 4.1732 134.2 5.28711V35.2871C134.2 36.401 133.758 37.4693 132.97 38.257C132.182 39.0446 131.114 39.4871 130 39.4871H5C3.88609 39.4871 2.8178 39.0446 2.03015 38.257C1.2425 37.4693 0.8 36.401 0.8 35.2871V5.28711C0.8 4.1732 1.2425 3.10491 2.03015 2.31726C2.8178 1.52961 3.88609 1.08711 5 1.08711H130ZM130 0.287109H5C3.67392 0.287109 2.40215 0.813894 1.46447 1.75158C0.526784 2.68926 0 3.96103 0 5.28711V35.2871C0 36.6132 0.526784 37.885 1.46447 38.8226C2.40215 39.7603 3.67392 40.2871 5 40.2871H130C131.326 40.2871 132.598 39.7603 133.536 38.8226C134.473 37.885 135 36.6132 135 35.2871V5.28711C135 3.96103 134.473 2.68926 133.536 1.75158C132.598 0.813894 131.326 0.287109 130 0.287109Z" fill="#A6A6A6"/>
<path d="M44.3757 10.7729H46.4666V13.674C46.1529 13.7804 45.8297 13.8595 45.4969 13.9113C45.1668 13.9631 44.7972 13.9891 44.388 13.9891C43.7661 13.9891 43.2409 13.8649 42.8127 13.6167C42.3871 13.3685 42.0639 13.0152 41.8429 12.5569C41.622 12.0959 41.5115 11.549 41.5115 10.9161C41.5115 10.2969 41.6329 9.75678 41.8756 9.29577C42.1212 8.83476 42.4744 8.47741 42.9354 8.22372C43.3992 7.9673 43.9556 7.83909 44.6049 7.83909C44.9377 7.83909 45.2527 7.87046 45.5501 7.9332C45.8501 7.99322 46.1284 8.07914 46.3848 8.19099L46.1188 8.79657C45.8979 8.7011 45.6537 8.61926 45.3864 8.55106C45.1218 8.48287 44.8477 8.44877 44.564 8.44877C44.0757 8.44877 43.6569 8.5497 43.3078 8.75156C42.9613 8.95342 42.6954 9.23849 42.5099 9.60675C42.3271 9.97501 42.2357 10.4115 42.2357 10.9161C42.2357 11.4153 42.3162 11.8504 42.4771 12.2214C42.6381 12.5897 42.889 12.8761 43.23 13.0807C43.571 13.2853 44.0102 13.3876 44.5476 13.3876C44.8176 13.3876 45.0495 13.3726 45.2432 13.3426C45.4369 13.3098 45.6128 13.2716 45.771 13.228V11.3949H44.3757V10.7729ZM51.2459 13.9072H47.9151V7.92502H51.2459V8.53879H48.6107V10.4742H51.0945V11.0798H48.6107V13.2935H51.2459V13.9072ZM54.4088 13.9072H53.7091V8.53879H51.8269V7.92502H56.2829V8.53879H54.4088V13.9072ZM59.364 13.9072V7.92502H60.0596V13.9072H59.364ZM63.5417 13.9072H62.842V8.53879H60.9598V7.92502H65.4158V8.53879H63.5417V13.9072ZM73.6853 10.9079C73.6853 11.3689 73.6266 11.789 73.5093 12.1682C73.392 12.5447 73.2174 12.8693 72.9856 13.1421C72.7564 13.4121 72.4714 13.6208 72.1304 13.7681C71.7894 13.9154 71.3939 13.9891 70.9438 13.9891C70.48 13.9891 70.0749 13.9154 69.7285 13.7681C69.3848 13.6208 69.0984 13.4108 68.8692 13.138C68.6428 12.8652 68.4723 12.5392 68.3578 12.16C68.2459 11.7809 68.19 11.3608 68.19 10.8998C68.19 10.2887 68.2909 9.75269 68.4928 9.29168C68.6946 8.83067 69.0002 8.47196 69.4093 8.21554C69.8213 7.95912 70.3368 7.83091 70.956 7.83091C71.548 7.83091 72.0458 7.95775 72.4496 8.21145C72.856 8.46514 73.1629 8.82249 73.3702 9.2835C73.5803 9.74178 73.6853 10.2833 73.6853 10.9079ZM68.9224 10.9079C68.9224 11.4153 68.9947 11.8545 69.1393 12.2255C69.2839 12.5965 69.5048 12.8829 69.8022 13.0848C70.1022 13.2866 70.4828 13.3876 70.9438 13.3876C71.4075 13.3876 71.7867 13.2866 72.0813 13.0848C72.3786 12.8829 72.5982 12.5965 72.7401 12.2255C72.8819 11.8545 72.9528 11.4153 72.9528 10.9079C72.9528 10.136 72.7905 9.5331 72.4659 9.09937C72.144 8.66291 71.6407 8.44468 70.956 8.44468C70.4923 8.44468 70.1104 8.54424 69.8103 8.74338C69.5103 8.94251 69.2866 9.22621 69.1393 9.59447C68.9947 9.96001 68.9224 10.3978 68.9224 10.9079ZM79.6961 13.9072H78.8941L75.633 8.8825H75.6002C75.6084 9.01617 75.618 9.16893 75.6289 9.34078C75.6398 9.50991 75.648 9.69131 75.6534 9.88499C75.6616 10.0759 75.6657 10.271 75.6657 10.4701V13.9072H75.0192V7.92502H75.8171L79.066 12.9334H79.0946C79.0892 12.8379 79.0824 12.7029 79.0742 12.5283C79.066 12.351 79.0578 12.1614 79.0496 11.9595C79.0442 11.7549 79.0414 11.5654 79.0414 11.3908V7.92502H79.6961V13.9072Z" fill="white"/>
<path d="M44.3757 10.7729V10.6729H44.2757V10.7729H44.3757ZM46.4666 10.7729H46.5666V10.6729H46.4666V10.7729ZM46.4666 13.674L46.4988 13.7687L46.5666 13.7457V13.674H46.4666ZM45.4969 13.9113L45.4815 13.8125L45.4814 13.8125L45.4969 13.9113ZM42.8127 13.6167L42.7623 13.7031L42.7625 13.7032L42.8127 13.6167ZM41.8429 12.5569L41.7527 12.6002L41.7528 12.6004L41.8429 12.5569ZM41.8756 9.29577L41.7874 9.24877L41.7872 9.24918L41.8756 9.29577ZM42.9354 8.22372L42.9836 8.31133L42.9838 8.31123L42.9354 8.22372ZM45.5501 7.9332L45.5294 8.03105L45.5305 8.03126L45.5501 7.9332ZM46.3848 8.19099L46.4764 8.2312L46.5167 8.13941L46.4248 8.09933L46.3848 8.19099ZM46.1188 8.79657L46.0792 8.88837L46.1704 8.9278L46.2104 8.83678L46.1188 8.79657ZM45.3864 8.55106L45.3614 8.6479L45.3617 8.64796L45.3864 8.55106ZM43.3078 8.75156L43.2577 8.66499L43.2574 8.66516L43.3078 8.75156ZM42.5099 9.60675L42.4206 9.56176L42.4203 9.56229L42.5099 9.60675ZM42.4771 12.2214L42.3854 12.2612L42.3855 12.2615L42.4771 12.2214ZM43.23 13.0807L43.1786 13.1664L43.23 13.0807ZM45.2432 13.3426L45.2585 13.4414L45.2599 13.4412L45.2432 13.3426ZM45.771 13.228L45.7976 13.3244L45.871 13.3041V13.228H45.771ZM45.771 11.3949H45.871V11.2949H45.771V11.3949ZM44.3757 11.3949H44.2757V11.4949H44.3757V11.3949ZM44.3757 10.7729V10.8729H46.4666V10.7729V10.6729H44.3757V10.7729ZM46.4666 10.7729H46.3666V13.674H46.4666H46.5666V10.7729H46.4666ZM46.4666 13.674L46.4345 13.5793C46.1264 13.6838 45.8087 13.7616 45.4815 13.8125L45.4969 13.9113L45.5123 14.0101C45.8507 13.9574 46.1795 13.877 46.4988 13.7687L46.4666 13.674ZM45.4969 13.9113L45.4814 13.8125C45.1574 13.8634 44.7931 13.8891 44.388 13.8891V13.9891V14.0891C44.8013 14.0891 45.1762 14.0629 45.5124 14.0101L45.4969 13.9113ZM44.388 13.9891V13.8891C43.7792 13.8891 43.2724 13.7676 42.8628 13.5302L42.8127 13.6167L42.7625 13.7032C43.2095 13.9623 43.7529 14.0891 44.388 14.0891V13.9891ZM42.8127 13.6167L42.8631 13.5303C42.4553 13.2925 42.1456 12.9545 41.933 12.5135L41.8429 12.5569L41.7528 12.6004C41.9821 13.076 42.3189 13.4445 42.7623 13.7031L42.8127 13.6167ZM41.8429 12.5569L41.9331 12.5137C41.7199 12.069 41.6115 11.5375 41.6115 10.9161H41.5115H41.4115C41.4115 11.5605 41.524 12.1228 41.7527 12.6002L41.8429 12.5569ZM41.5115 10.9161H41.6115C41.6115 10.3101 41.7302 9.78653 41.9641 9.34237L41.8756 9.29577L41.7872 9.24918C41.5355 9.72703 41.4115 10.2837 41.4115 10.9161H41.5115ZM41.8756 9.29577L41.9639 9.34278C42.2002 8.89904 42.5395 8.55574 42.9836 8.31133L42.9354 8.22372L42.8872 8.13611C42.4093 8.39909 42.0421 8.77049 41.7874 9.24877L41.8756 9.29577ZM42.9354 8.22372L42.9838 8.31123C43.4297 8.06466 43.9688 7.93909 44.6049 7.93909V7.83909V7.73909C43.9425 7.73909 43.3686 7.86995 42.887 8.13621L42.9354 8.22372ZM44.6049 7.83909V7.93909C44.9314 7.93909 45.2395 7.96987 45.5294 8.03105L45.5501 7.9332L45.5707 7.83536C45.266 7.77106 44.944 7.73909 44.6049 7.73909V7.83909ZM45.5501 7.9332L45.5305 8.03126C45.8242 8.09 46.0955 8.17391 46.3448 8.28265L46.3848 8.19099L46.4248 8.09933C46.1612 7.98438 45.8761 7.89643 45.5697 7.83514L45.5501 7.9332ZM46.3848 8.19099L46.2932 8.15077L46.0273 8.75636L46.1188 8.79657L46.2104 8.83678L46.4764 8.2312L46.3848 8.19099ZM46.1188 8.79657L46.1585 8.70478C45.9321 8.60693 45.6828 8.52348 45.4111 8.45417L45.3864 8.55106L45.3617 8.64796C45.6246 8.71504 45.8637 8.79526 46.0792 8.88837L46.1188 8.79657ZM45.3864 8.55106L45.4114 8.45423C45.1383 8.38385 44.8557 8.34877 44.564 8.34877V8.44877V8.54877C44.8396 8.54877 45.1053 8.58188 45.3614 8.6479L45.3864 8.55106ZM44.564 8.44877V8.34877C44.0618 8.34877 43.625 8.45265 43.2577 8.66499L43.3078 8.75156L43.3578 8.83814C43.6889 8.64675 44.0895 8.54877 44.564 8.54877V8.44877ZM43.3078 8.75156L43.2574 8.66516C42.8938 8.87705 42.6145 9.17673 42.4206 9.56176L42.5099 9.60675L42.5992 9.65173C42.7762 9.30024 43.0289 9.02979 43.3581 8.83796L43.3078 8.75156ZM42.5099 9.60675L42.4203 9.56229C42.2293 9.94716 42.1357 10.3995 42.1357 10.9161H42.2357H42.3357C42.3357 10.4234 42.4249 10.0029 42.5994 9.6512L42.5099 9.60675ZM42.2357 10.9161H42.1357C42.1357 11.4259 42.2179 11.8751 42.3854 12.2612L42.4771 12.2214L42.5689 12.1816C42.4145 11.8258 42.3357 11.4048 42.3357 10.9161H42.2357ZM42.4771 12.2214L42.3855 12.2615C42.5547 12.6485 42.8196 12.951 43.1786 13.1664L43.23 13.0807L43.2815 12.9949C42.9585 12.8012 42.7215 12.5308 42.5688 12.1814L42.4771 12.2214ZM43.23 13.0807L43.1786 13.1664C43.5396 13.3831 43.9982 13.4876 44.5476 13.4876V13.3876V13.2876C44.0222 13.2876 43.6024 13.1875 43.2815 12.9949L43.23 13.0807ZM44.5476 13.3876V13.4876C44.821 13.4876 45.0583 13.4724 45.2585 13.4414L45.2432 13.3426L45.2279 13.2437C45.0408 13.2727 44.8143 13.2876 44.5476 13.2876V13.3876ZM45.2432 13.3426L45.2599 13.4412C45.4563 13.408 45.6356 13.3691 45.7976 13.3244L45.771 13.228L45.7444 13.1316C45.5901 13.1742 45.4175 13.2117 45.2265 13.244L45.2432 13.3426ZM45.771 13.228H45.871V11.3949H45.771H45.671V13.228H45.771ZM45.771 11.3949V11.2949H44.3757V11.3949V11.4949H45.771V11.3949ZM44.3757 11.3949H44.4757V10.7729H44.3757H44.2757V11.3949H44.3757ZM51.2459 13.9072V14.0072H51.3459V13.9072H51.2459ZM47.9151 13.9072H47.8151V14.0072H47.9151V13.9072ZM47.9151 7.92502V7.82502H47.8151V7.92502H47.9151ZM51.2459 7.92502H51.3459V7.82502H51.2459V7.92502ZM51.2459 8.53879V8.63879H51.3459V8.53879H51.2459ZM48.6107 8.53879V8.43879H48.5107V8.53879H48.6107ZM48.6107 10.4742H48.5107V10.5742H48.6107V10.4742ZM51.0945 10.4742H51.1945V10.3742H51.0945V10.4742ZM51.0945 11.0798V11.1798H51.1945V11.0798H51.0945ZM48.6107 11.0798V10.9798H48.5107V11.0798H48.6107ZM48.6107 13.2935H48.5107V13.3935H48.6107V13.2935ZM51.2459 13.2935H51.3459V13.1935H51.2459V13.2935ZM51.2459 13.9072V13.8072H47.9151V13.9072V14.0072H51.2459V13.9072ZM47.9151 13.9072H48.0151V7.92502H47.9151H47.8151V13.9072H47.9151ZM47.9151 7.92502V8.02502H51.2459V7.92502V7.82502H47.9151V7.92502ZM51.2459 7.92502H51.1459V8.53879H51.2459H51.3459V7.92502H51.2459ZM51.2459 8.53879V8.43879H48.6107V8.53879V8.63879H51.2459V8.53879ZM48.6107 8.53879H48.5107V10.4742H48.6107H48.7107V8.53879H48.6107ZM48.6107 10.4742V10.5742H51.0945V10.4742V10.3742H48.6107V10.4742ZM51.0945 10.4742H50.9945V11.0798H51.0945H51.1945V10.4742H51.0945ZM51.0945 11.0798V10.9798H48.6107V11.0798V11.1798H51.0945V11.0798ZM48.6107 11.0798H48.5107V13.2935H48.6107H48.7107V11.0798H48.6107ZM48.6107 13.2935V13.3935H51.2459V13.2935V13.1935H48.6107V13.2935ZM51.2459 13.2935H51.1459V13.9072H51.2459H51.3459V13.2935H51.2459ZM54.4088 13.9072V14.0072H54.5088V13.9072H54.4088ZM53.7091 13.9072H53.6091V14.0072H53.7091V13.9072ZM53.7091 8.53879H53.8091V8.43879H53.7091V8.53879ZM51.8269 8.53879H51.7269V8.63879H51.8269V8.53879ZM51.8269 7.92502V7.82502H51.7269V7.92502H51.8269ZM56.2829 7.92502H56.3829V7.82502H56.2829V7.92502ZM56.2829 8.53879V8.63879H56.3829V8.53879H56.2829ZM54.4088 8.53879V8.43879H54.3088V8.53879H54.4088ZM54.4088 13.9072V13.8072H53.7091V13.9072V14.0072H54.4088V13.9072ZM53.7091 13.9072H53.8091V8.53879H53.7091H53.6091V13.9072H53.7091ZM53.7091 8.53879V8.43879H51.8269V8.53879V8.63879H53.7091V8.53879ZM51.8269 8.53879H51.9269V7.92502H51.8269H51.7269V8.53879H51.8269ZM51.8269 7.92502V8.02502H56.2829V7.92502V7.82502H51.8269V7.92502ZM56.2829 7.92502H56.1829V8.53879H56.2829H56.3829V7.92502H56.2829ZM56.2829 8.53879V8.43879H54.4088V8.53879V8.63879H56.2829V8.53879ZM54.4088 8.53879H54.3088V13.9072H54.4088H54.5088V8.53879H54.4088ZM59.364 13.9072H59.264V14.0072H59.364V13.9072ZM59.364 7.92502V7.82502H59.264V7.92502H59.364ZM60.0596 7.92502H60.1596V7.82502H60.0596V7.92502ZM60.0596 13.9072V14.0072H60.1596V13.9072H60.0596ZM59.364 13.9072H59.464V7.92502H59.364H59.264V13.9072H59.364ZM59.364 7.92502V8.02502H60.0596V7.92502V7.82502H59.364V7.92502ZM60.0596 7.92502H59.9596V13.9072H60.0596H60.1596V7.92502H60.0596ZM60.0596 13.9072V13.8072H59.364V13.9072V14.0072H60.0596V13.9072ZM63.5417 13.9072V14.0072H63.6417V13.9072H63.5417ZM62.842 13.9072H62.742V14.0072H62.842V13.9072ZM62.842 8.53879H62.942V8.43879H62.842V8.53879ZM60.9598 8.53879H60.8598V8.63879H60.9598V8.53879ZM60.9598 7.92502V7.82502H60.8598V7.92502H60.9598ZM65.4158 7.92502H65.5158V7.82502H65.4158V7.92502ZM65.4158 8.53879V8.63879H65.5158V8.53879H65.4158ZM63.5417 8.53879V8.43879H63.4417V8.53879H63.5417ZM63.5417 13.9072V13.8072H62.842V13.9072V14.0072H63.5417V13.9072ZM62.842 13.9072H62.942V8.53879H62.842H62.742V13.9072H62.842ZM62.842 8.53879V8.43879H60.9598V8.53879V8.63879H62.842V8.53879ZM60.9598 8.53879H61.0598V7.92502H60.9598H60.8598V8.53879H60.9598ZM60.9598 7.92502V8.02502H65.4158V7.92502V7.82502H60.9598V7.92502ZM65.4158 7.92502H65.3158V8.53879H65.4158H65.5158V7.92502H65.4158ZM65.4158 8.53879V8.43879H63.5417V8.53879V8.63879H65.4158V8.53879ZM63.5417 8.53879H63.4417V13.9072H63.5417H63.6417V8.53879H63.5417ZM73.5093 12.1682L73.6048 12.198L73.6049 12.1978L73.5093 12.1682ZM72.9856 13.1421L72.9094 13.0773L72.9093 13.0774L72.9856 13.1421ZM72.1304 13.7681L72.17 13.8599L72.1304 13.7681ZM69.7285 13.7681L69.6891 13.86L69.6894 13.8601L69.7285 13.7681ZM68.8692 13.138L68.7923 13.2018L68.7927 13.2023L68.8692 13.138ZM68.3578 12.16L68.2618 12.1883L68.262 12.189L68.3578 12.16ZM69.4093 8.21554L69.3565 8.13064L69.3562 8.1308L69.4093 8.21554ZM72.4496 8.21145L72.3963 8.29612L72.3966 8.29628L72.4496 8.21145ZM73.3702 9.2835L73.279 9.32451L73.2793 9.32516L73.3702 9.2835ZM69.8022 13.0848L69.746 13.1675L69.7463 13.1677L69.8022 13.0848ZM72.0813 13.0848L72.0251 13.002L72.0248 13.0023L72.0813 13.0848ZM72.4659 9.09937L72.3854 9.15872L72.3859 9.15928L72.4659 9.09937ZM69.8103 8.74338L69.755 8.66006L69.8103 8.74338ZM69.1393 9.59447L69.0464 9.55733L69.0463 9.55769L69.1393 9.59447ZM73.6853 10.9079H73.5853C73.5853 11.3605 73.5277 11.7705 73.4138 12.1387L73.5093 12.1682L73.6049 12.1978C73.7256 11.8076 73.7853 11.3774 73.7853 10.9079H73.6853ZM73.5093 12.1682L73.4139 12.1385C73.3002 12.5034 73.1317 12.8158 72.9094 13.0773L72.9856 13.1421L73.0618 13.2068C73.3032 12.9228 73.4839 12.5859 73.6048 12.198L73.5093 12.1682ZM72.9856 13.1421L72.9093 13.0774C72.6906 13.3351 72.4183 13.5348 72.0907 13.6763L72.1304 13.7681L72.17 13.8599C72.5244 13.7068 72.8222 13.4891 73.0618 13.2068L72.9856 13.1421ZM72.1304 13.7681L72.0907 13.6763C71.7646 13.8172 71.3831 13.8891 70.9438 13.8891V13.9891V14.0891C71.4047 14.0891 71.8142 14.0136 72.17 13.8599L72.1304 13.7681ZM70.9438 13.9891V13.8891C70.4905 13.8891 70.0992 13.8171 69.7676 13.6761L69.7285 13.7681L69.6894 13.8601C70.0507 14.0138 70.4696 14.0891 70.9438 14.0891V13.9891ZM69.7285 13.7681L69.7679 13.6762C69.4378 13.5347 69.1644 13.3339 68.9458 13.0736L68.8692 13.138L68.7927 13.2023C69.0324 13.4877 69.3318 13.7069 69.6891 13.86L69.7285 13.7681ZM68.8692 13.138L68.9462 13.0741C68.7292 12.8127 68.5646 12.499 68.4535 12.1311L68.3578 12.16L68.262 12.189C68.38 12.5794 68.5564 12.9176 68.7923 13.2018L68.8692 13.138ZM68.3578 12.16L68.4537 12.1317C68.3449 11.7631 68.29 11.3527 68.29 10.8998H68.19H68.09C68.09 11.3688 68.1469 11.7986 68.2618 12.1883L68.3578 12.16ZM68.19 10.8998H68.29C68.29 10.2996 68.3891 9.77775 68.5844 9.33179L68.4928 9.29168L68.4012 9.25157C68.1927 9.72763 68.09 10.2778 68.09 10.8998H68.19ZM68.4928 9.29168L68.5844 9.33179C68.7786 8.88836 69.071 8.54556 69.4624 8.30027L69.4093 8.21554L69.3562 8.1308C68.9293 8.39836 68.6107 8.77298 68.4012 9.25157L68.4928 9.29168ZM69.4093 8.21554L69.4622 8.30043C69.8544 8.05627 70.3504 7.93091 70.956 7.93091V7.83091V7.73091C70.3232 7.73091 69.7881 7.86196 69.3565 8.13064L69.4093 8.21554ZM70.956 7.83091V7.93091C71.5337 7.93091 72.012 8.05461 72.3963 8.29612L72.4496 8.21145L72.5028 8.12677C72.0796 7.8609 71.5623 7.73091 70.956 7.73091V7.83091ZM72.4496 8.21145L72.3966 8.29628C72.7853 8.53888 73.0793 8.88053 73.279 9.32451L73.3702 9.2835L73.4614 9.24248C73.2464 8.76445 72.9267 8.39139 72.5025 8.12661L72.4496 8.21145ZM73.3702 9.2835L73.2793 9.32516C73.4821 9.76763 73.5853 10.2943 73.5853 10.9079H73.6853H73.7853C73.7853 10.2722 73.6784 9.71592 73.4611 9.24183L73.3702 9.2835ZM68.9224 10.9079H68.8224C68.8224 11.4245 68.896 11.8766 69.0461 12.2618L69.1393 12.2255L69.2325 12.1892C69.0934 11.8325 69.0224 11.4062 69.0224 10.9079H68.9224ZM69.1393 12.2255L69.0461 12.2618C69.1972 12.6495 69.4301 12.9531 69.746 13.1675L69.8022 13.0848L69.8583 13.002C69.5795 12.8128 69.3705 12.5434 69.2325 12.1892L69.1393 12.2255ZM69.8022 13.0848L69.7463 13.1677C70.0669 13.3834 70.4683 13.4876 70.9438 13.4876V13.3876V13.2876C70.4972 13.2876 70.1375 13.1899 69.858 13.0018L69.8022 13.0848ZM70.9438 13.3876V13.4876C71.4217 13.4876 71.8222 13.3835 72.1378 13.1673L72.0813 13.0848L72.0248 13.0023C71.7511 13.1898 71.3933 13.2876 70.9438 13.2876V13.3876ZM72.0813 13.0848L72.1375 13.1675C72.4535 12.953 72.6851 12.6492 72.8335 12.2612L72.7401 12.2255L72.6467 12.1898C72.5113 12.5438 72.3038 12.8129 72.0251 13.002L72.0813 13.0848ZM72.7401 12.2255L72.8335 12.2612C72.9807 11.8761 73.0528 11.4243 73.0528 10.9079H72.9528H72.8528C72.8528 11.4064 72.7831 11.8329 72.6467 12.1898L72.7401 12.2255ZM72.9528 10.9079H73.0528C73.0528 10.1232 72.888 9.49645 72.546 9.03945L72.4659 9.09937L72.3859 9.15928C72.6931 9.56974 72.8528 10.1487 72.8528 10.9079H72.9528ZM72.4659 9.09937L72.5464 9.04001C72.2008 8.57137 71.6633 8.34468 70.956 8.34468V8.44468V8.54468C71.6182 8.54468 72.0873 8.75445 72.3854 9.15872L72.4659 9.09937ZM70.956 8.44468V8.34468C70.4782 8.34468 70.0756 8.44731 69.755 8.66006L69.8103 8.74338L69.8656 8.8267C70.1452 8.64118 70.5064 8.54468 70.956 8.54468V8.44468ZM69.8103 8.74338L69.755 8.66006C69.4364 8.87155 69.2005 9.17222 69.0464 9.55733L69.1393 9.59447L69.2321 9.63161C69.3727 9.2802 69.5842 9.01348 69.8656 8.8267L69.8103 8.74338ZM69.1393 9.59447L69.0463 9.55769C68.8959 9.93785 68.8224 10.3888 68.8224 10.9079H68.9224H69.0224C69.0224 10.4069 69.0935 9.98216 69.2323 9.63125L69.1393 9.59447ZM79.6961 13.9072V14.0072H79.7961V13.9072H79.6961ZM78.8941 13.9072L78.8102 13.9617L78.8398 14.0072H78.8941V13.9072ZM75.633 8.8825L75.7169 8.82806L75.6873 8.7825H75.633V8.8825ZM75.6002 8.8825V8.7825H75.4939L75.5004 8.88861L75.6002 8.8825ZM75.6289 9.34078L75.5291 9.34712L75.5291 9.34722L75.6289 9.34078ZM75.6534 9.88499L75.5535 9.88781L75.5535 9.88927L75.6534 9.88499ZM75.6657 13.9072V14.0072H75.7657V13.9072H75.6657ZM75.0192 13.9072H74.9192V14.0072H75.0192V13.9072ZM75.0192 7.92502V7.82502H74.9192V7.92502H75.0192ZM75.8171 7.92502L75.901 7.8706L75.8714 7.82502H75.8171V7.92502ZM79.066 12.9334L78.9821 12.9878L79.0117 13.0334H79.066V12.9334ZM79.0946 12.9334V13.0334H79.2005L79.1945 12.9277L79.0946 12.9334ZM79.0742 12.5283L78.9743 12.5329L78.9743 12.533L79.0742 12.5283ZM79.0496 11.9595L78.9496 11.9622L78.9497 11.9636L79.0496 11.9595ZM79.0414 7.92502V7.82502H78.9414V7.92502H79.0414ZM79.6961 7.92502H79.7961V7.82502H79.6961V7.92502ZM79.6961 13.9072V13.8072H78.8941V13.9072V14.0072H79.6961V13.9072ZM78.8941 13.9072L78.978 13.8528L75.7169 8.82806L75.633 8.8825L75.5491 8.93694L78.8102 13.9617L78.8941 13.9072ZM75.633 8.8825V8.7825H75.6002V8.8825V8.9825H75.633V8.8825ZM75.6002 8.8825L75.5004 8.88861C75.5086 9.02237 75.5182 9.17521 75.5291 9.34712L75.6289 9.34078L75.7287 9.33444C75.7178 9.16264 75.7082 9.00996 75.7 8.87639L75.6002 8.8825ZM75.6289 9.34078L75.5291 9.34722C75.5399 9.51498 75.548 9.69517 75.5535 9.88781L75.6534 9.88499L75.7534 9.88217C75.7479 9.68745 75.7397 9.50483 75.7287 9.33434L75.6289 9.34078ZM75.6534 9.88499L75.5535 9.88927C75.5616 10.0787 75.5657 10.2724 75.5657 10.4701H75.6657H75.7657C75.7657 10.2696 75.7616 10.0731 75.7533 9.88071L75.6534 9.88499ZM75.6657 10.4701H75.5657V13.9072H75.6657H75.7657V10.4701H75.6657ZM75.6657 13.9072V13.8072H75.0192V13.9072V14.0072H75.6657V13.9072ZM75.0192 13.9072H75.1192V7.92502H75.0192H74.9192V13.9072H75.0192ZM75.0192 7.92502V8.02502H75.8171V7.92502V7.82502H75.0192V7.92502ZM75.8171 7.92502L75.7332 7.97944L78.9821 12.9878L79.066 12.9334L79.1499 12.879L75.901 7.8706L75.8171 7.92502ZM79.066 12.9334V13.0334H79.0946V12.9334V12.8334H79.066V12.9334ZM79.0946 12.9334L79.1945 12.9277C79.189 12.8327 79.1822 12.6981 79.1741 12.5236L79.0742 12.5283L78.9743 12.533C78.9825 12.7077 78.9893 12.8431 78.9948 12.9391L79.0946 12.9334ZM79.0742 12.5283L79.1741 12.5237C79.1659 12.3466 79.1577 12.1572 79.1495 11.9555L79.0496 11.9595L78.9497 11.9636C78.9579 12.1656 78.9661 12.3554 78.9743 12.5329L79.0742 12.5283ZM79.0496 11.9595L79.1496 11.9569C79.1441 11.753 79.1414 11.5643 79.1414 11.3908H79.0414H78.9414C78.9414 11.5664 78.9442 11.7569 78.9497 11.9622L79.0496 11.9595ZM79.0414 11.3908H79.1414V7.92502H79.0414H78.9414V11.3908H79.0414ZM79.0414 7.92502V8.02502H79.6961V7.92502V7.82502H79.0414V7.92502ZM79.6961 7.92502H79.5961V13.9072H79.6961H79.7961V7.92502H79.6961Z" fill="white"/>
<path d="M68.14 22.037C67.2975 22.039 66.4744 22.2908 65.775 22.7605C65.0755 23.2303 64.5311 23.8969 64.2105 24.676C63.8899 25.4552 63.8075 26.3119 63.9738 27.1379C64.1402 27.9639 64.5477 28.722 65.1448 29.3164C65.742 29.9107 66.502 30.3147 67.3287 30.4771C68.1555 30.6395 69.0118 30.5532 69.7895 30.2289C70.5671 29.9047 71.2312 29.3571 71.6976 28.6554C72.1641 27.9538 72.412 27.1296 72.41 26.287C72.4182 25.725 72.3131 25.167 72.1012 24.6464C71.8892 24.1257 71.5747 23.6531 71.1763 23.2565C70.7778 22.86 70.3037 22.5477 69.7821 22.3382C69.2605 22.1286 68.702 22.0262 68.14 22.037V22.037ZM68.14 28.867C67.6236 28.9031 67.1082 28.7831 66.661 28.5224C66.2137 28.2618 65.8552 27.8726 65.632 27.4055C65.4089 26.9384 65.3314 26.4149 65.4097 25.9032C65.488 25.3915 65.7184 24.9151 66.071 24.5361C66.4236 24.157 66.882 23.8928 67.3868 23.7778C67.8915 23.6628 68.4192 23.7023 68.9012 23.8911C69.3832 24.08 69.7973 24.4094 70.0895 24.8367C70.3818 25.264 70.5387 25.7694 70.54 26.287C70.5561 26.615 70.5064 26.943 70.3937 27.2515C70.2811 27.5599 70.1078 27.8428 69.8841 28.0832C69.6605 28.3237 69.3909 28.5169 69.0914 28.6515C68.7918 28.7861 68.4683 28.8594 68.14 28.867ZM58.82 22.037C57.9775 22.039 57.1544 22.2908 56.455 22.7605C55.7555 23.2303 55.2111 23.8969 54.8905 24.676C54.5699 25.4552 54.4875 26.3119 54.6538 27.1379C54.8202 27.9639 55.2277 28.722 55.8248 29.3164C56.422 29.9107 57.182 30.3147 58.0087 30.4771C58.8355 30.6395 59.6918 30.5532 60.4695 30.2289C61.2471 29.9047 61.9112 29.3571 62.3776 28.6554C62.8441 27.9538 63.092 27.1296 63.09 26.287C63.0982 25.725 62.9931 25.167 62.7812 24.6464C62.5692 24.1257 62.2547 23.6531 61.8563 23.2565C61.4578 22.86 60.9837 22.5477 60.4621 22.3382C59.9405 22.1286 59.382 22.0262 58.82 22.037V22.037ZM58.82 28.867C58.3036 28.9031 57.7882 28.7831 57.341 28.5224C56.8937 28.2618 56.5352 27.8726 56.312 27.4055C56.0889 26.9384 56.0114 26.4149 56.0897 25.9032C56.168 25.3915 56.3984 24.9151 56.751 24.5361C57.1036 24.157 57.562 23.8928 58.0668 23.7778C58.5715 23.6628 59.0992 23.7023 59.5812 23.8911C60.0632 24.08 60.4773 24.4094 60.7695 24.8367C61.0618 25.264 61.2187 25.7694 61.22 26.287C61.2361 26.615 61.1864 26.943 61.0737 27.2515C60.9611 27.5599 60.7878 27.8428 60.5641 28.0832C60.3405 28.3237 60.0709 28.5169 59.7714 28.6515C59.4718 28.7861 59.1483 28.8594 58.82 28.867ZM47.74 23.347V25.147H52.06C51.9923 25.9948 51.6399 26.7948 51.06 27.417C50.6267 27.8585 50.1055 28.2042 49.5301 28.4316C48.9548 28.6589 48.3381 28.763 47.72 28.737C46.447 28.737 45.2261 28.2313 44.3259 27.3311C43.4257 26.431 42.92 25.2101 42.92 23.937C42.92 22.664 43.4257 21.4431 44.3259 20.5429C45.2261 19.6427 46.447 19.137 47.72 19.137C48.9405 19.1189 50.1189 19.5824 51 20.427L52.27 19.157C51.674 18.5675 50.9663 18.1029 50.1885 17.7904C49.4106 17.4779 48.5782 17.3238 47.74 17.337C46.851 17.3024 45.9642 17.4477 45.1326 17.764C44.3011 18.0803 43.542 18.5613 42.9008 19.178C42.2596 19.7948 41.7494 20.5346 41.401 21.3532C41.0526 22.1718 40.873 23.0524 40.873 23.942C40.873 24.8317 41.0526 25.7122 41.401 26.5308C41.7494 27.3494 42.2596 28.0893 42.9008 28.706C43.542 29.3228 44.3011 29.8037 45.1326 30.1201C45.9642 30.4364 46.851 30.5816 47.74 30.547C48.5954 30.5812 49.4484 30.434 50.2429 30.1152C51.0374 29.7964 51.7555 29.3131 52.35 28.697C53.4001 27.5434 53.9597 26.0262 53.91 24.467C53.9136 24.0918 53.8835 23.7169 53.82 23.347H47.74ZM93.05 24.747C92.7892 23.9798 92.3015 23.3098 91.6515 22.8259C91.0015 22.3419 90.2198 22.0669 89.41 22.037C88.863 22.036 88.3216 22.1471 87.8192 22.3636C87.3169 22.58 86.8643 22.8972 86.4894 23.2956C86.1145 23.6939 85.8253 24.1649 85.6396 24.6794C85.454 25.194 85.3758 25.7411 85.41 26.287C85.4015 27.1999 85.6885 28.091 86.2281 28.8273C86.7678 29.5636 87.5312 30.1055 88.4043 30.3722C89.2773 30.6388 90.2133 30.6159 91.0722 30.3067C91.9312 29.9976 92.6671 29.4189 93.17 28.657L91.72 27.657C91.5039 28.0173 91.1973 28.3148 90.8307 28.5201C90.464 28.7253 90.0501 28.8311 89.63 28.827C89.1966 28.8449 88.7679 28.7313 88.4002 28.5011C88.0326 28.2708 87.7432 27.9348 87.57 27.537L93.26 25.187L93.05 24.747ZM87.25 26.167C87.2297 25.8564 87.2716 25.5449 87.3733 25.2506C87.4749 24.9564 87.6342 24.6854 87.8419 24.4536C88.0496 24.2217 88.3014 24.0336 88.5827 23.9002C88.864 23.7669 89.169 23.691 89.48 23.677C89.8022 23.6574 90.1231 23.7332 90.4023 23.8951C90.6816 24.057 90.9069 24.2977 91.05 24.587L87.25 26.167ZM82.63 30.287H84.5V17.787H82.63V30.287ZM79.57 22.987H79.5C79.2207 22.6689 78.8759 22.4148 78.4893 22.2422C78.1027 22.0697 77.6834 21.9826 77.26 21.987C76.1672 22.04 75.1367 22.5115 74.382 23.3036C73.6273 24.0958 73.2063 25.1479 73.2063 26.242C73.2063 27.3361 73.6273 28.3883 74.382 29.1804C75.1367 29.9726 76.1672 30.444 77.26 30.497C77.684 30.5055 78.1046 30.4203 78.4918 30.2474C78.879 30.0746 79.2233 29.8183 79.5 29.497H79.57V30.107C79.57 31.737 78.7 32.607 77.3 32.607C76.8323 32.5968 76.3783 32.4477 75.9955 32.1789C75.6126 31.91 75.3184 31.5335 75.15 31.097L73.53 31.767C73.8295 32.5193 74.3503 33.1629 75.0234 33.6129C75.6966 34.0628 76.4904 34.2979 77.3 34.287C79.49 34.287 81.3 32.997 81.3 29.857V22.287H79.57V22.987ZM77.42 28.867C76.7648 28.8262 76.1498 28.5371 75.7003 28.0587C75.2508 27.5803 75.0006 26.9485 75.0006 26.292C75.0006 25.6356 75.2508 25.0038 75.7003 24.5254C76.1498 24.047 76.7648 23.7579 77.42 23.717C77.7402 23.7309 78.0544 23.8089 78.3439 23.9467C78.6333 24.0844 78.8921 24.2789 79.1048 24.5187C79.3175 24.7585 79.4798 25.0386 79.5821 25.3424C79.6843 25.6462 79.7244 25.9674 79.7 26.287C79.7273 26.6077 79.6892 26.9306 79.5882 27.2362C79.4871 27.5418 79.3251 27.8236 79.112 28.0648C78.8988 28.306 78.639 28.5014 78.3482 28.6393C78.0574 28.7772 77.7416 28.8547 77.42 28.867V28.867ZM101.81 17.787H97.33V30.287H99.2V25.547H101.81C102.343 25.5853 102.878 25.5134 103.382 25.3358C103.886 25.1581 104.348 24.8786 104.739 24.5145C105.13 24.1505 105.442 23.7098 105.655 23.2199C105.869 22.73 105.979 22.2014 105.979 21.667C105.979 21.1327 105.869 20.6041 105.655 20.1142C105.442 19.6243 105.13 19.1836 104.739 18.8195C104.348 18.4555 103.886 18.1759 103.382 17.9983C102.878 17.8207 102.343 17.7487 101.81 17.787V17.787ZM101.81 23.787H99.2V19.527H101.85C102.131 19.527 102.409 19.5824 102.669 19.6899C102.929 19.7975 103.164 19.9551 103.363 20.1538C103.562 20.3525 103.72 20.5885 103.827 20.8481C103.935 21.1077 103.99 21.386 103.99 21.667C103.99 21.9481 103.935 22.2263 103.827 22.486C103.72 22.7456 103.562 22.9815 103.363 23.1802C103.164 23.379 102.929 23.5366 102.669 23.6441C102.409 23.7517 102.131 23.807 101.85 23.807L101.81 23.787ZM113.35 21.997C112.669 21.955 111.991 22.1136 111.399 22.453C110.807 22.7925 110.328 23.298 110.02 23.907L111.67 24.597C111.837 24.2964 112.087 24.0505 112.39 23.8891C112.694 23.7276 113.038 23.6574 113.38 23.687C113.617 23.6593 113.858 23.6791 114.088 23.7454C114.317 23.8116 114.531 23.9229 114.718 24.0727C114.904 24.2226 115.058 24.4081 115.172 24.6183C115.286 24.8285 115.356 25.0592 115.38 25.297V25.417C114.779 25.1009 114.109 24.9362 113.43 24.937C111.65 24.937 109.83 25.937 109.83 27.757C109.848 28.1439 109.943 28.5232 110.11 28.8726C110.277 29.2219 110.513 29.5341 110.803 29.7906C111.093 30.0472 111.431 30.2428 111.799 30.3658C112.166 30.4889 112.554 30.5369 112.94 30.507C113.409 30.533 113.877 30.4337 114.295 30.2193C114.713 30.0049 115.067 29.6832 115.32 29.287H115.38V30.287H117.18V25.477C117.18 23.287 115.52 22.017 113.39 22.017L113.35 21.997ZM113.12 28.847C112.51 28.847 111.66 28.537 111.66 27.787C111.66 26.787 112.72 26.447 113.66 26.447C114.254 26.4324 114.841 26.5774 115.36 26.867C115.297 27.4101 115.04 27.912 114.635 28.2797C114.231 28.6475 113.707 28.8561 113.16 28.867L113.12 28.847ZM123.74 22.287L121.6 27.707H121.54L119.32 22.287H117.32L120.65 29.867L118.75 34.077H120.7L125.82 22.287H123.74ZM106.94 30.287H108.8V17.787H106.94V30.287Z" fill="white"/>
<path d="M20.72 19.707L10.07 31.007C10.1864 31.4344 10.3994 31.8294 10.6926 32.1613C10.9859 32.4933 11.3516 32.7534 11.7613 32.9216C12.1711 33.0898 12.6141 33.1615 13.056 33.1312C13.4979 33.1009 13.927 32.9695 14.31 32.747V32.747L26.31 25.827L20.72 19.707Z" fill="#EA4335"/>
<path d="M31.49 17.7871L26.31 14.7871L20.49 19.9771L26.33 25.8271L31.48 22.8271C31.9378 22.5819 32.3205 22.2171 32.5873 21.7716C32.8541 21.326 32.995 20.8164 32.995 20.2971C32.995 19.7778 32.8541 19.2682 32.5873 18.8226C32.3205 18.3771 31.9378 18.0123 31.48 17.7671L31.49 17.7871Z" fill="#FBBC04"/>
<path d="M10.07 9.56738C10.0171 9.80359 9.99359 10.0454 9.99999 10.2874V30.2874C10.0017 30.5373 10.0353 30.786 10.1 31.0274L21.1 20.0274L10.07 9.56738Z" fill="#4285F4"/>
<path d="M20.8 20.2868L26.31 14.7768L14.31 7.83676C13.8591 7.56876 13.3445 7.42713 12.82 7.42676C12.1873 7.42857 11.5728 7.63793 11.0706 8.02269C10.5684 8.40746 10.2063 8.94638 10.04 9.55676V9.55676L20.8 20.2868Z" fill="#34A853"/>
</g>
<defs>
<clipPath id="clip0_66_221">
<rect width="135" height="40" fill="white" transform="translate(0 0.287109)"/>
</clipPath>
</defs>
</svg>
